# xmcd CD database file
#
# Track frame offsets:
#	182
#	12200
#	24237
#	36057
#	48892
#	60825
#	74280
#	89202
#	99107
#	110402
#
# Disc length: 1637 seconds
#
# Revision: 5
# Processed by: cddbd v1.5.2PL0 Copyright (c) Steve Scherf et al.
# Submitted via: CDex 1.70beta2
#
DISCID=6f06630a
DTITLE=Sam and Dave - Soul Man And Other Hits
DYEAR=1900
DGENRE=
TTITLE0=Soul Man
TTITLE1=You Don't Know Like I Know
TTITLE2=Said I Wasn't Gonna Tell Nobody
TTITLE3=You Got Me Hummin'
TTITLE4=Hold On! I'm A Comin'
TTITLE5=Soothe Me
TTITLE6=When Something Is Wrong With My Baby
TTITLE7=You Don't Know What You Mean To Me.
TTITLE8=Soul Sister, Brown Sugar
TTITLE9=I Thank You
EXTD=
EXTT0=
EXTT1=
EXTT2=
EXTT3=
EXTT4=
EXTT5=
EXTT6=
EXTT7=
EXTT8=
EXTT9=
PLAYORDER=
